<svg width="23" height="19" viewBox="0 0 23 19" fill="none" xmlns="http://www.w3.org/2000/svg">
<path d="M13.8067 0.822036L13.8067 0.822061L21.4773 7.09018C21.5423 7.14332 21.5641 7.20494 21.5641 7.25857C21.5641 7.3123 21.5422 7.37398 21.4774 7.42697C21.4774 7.42698 21.4773 7.42699 21.4773 7.42699L13.8067 13.6958L13.8067 13.6958C13.7112 13.7738 13.5809 13.7898 13.4599 13.738C13.3434 13.6882 13.3017 13.6089 13.3017 13.5274V9.90158V9.1413L12.5415 9.15165C10.8295 9.17496 9.32462 9.29291 8.06291 9.56291C6.80559 9.83197 5.73156 10.2639 4.93513 10.9582C3.26386 12.415 3.13257 14.6956 4.11946 17.7244C4.11309 17.7257 4.10664 17.7264 4.10036 17.7264C4.08585 17.7265 4.07289 17.7234 4.05708 17.7125L4.05707 17.7125C2.29514 16.4998 0.75 14.1974 0.75 11.9736C0.75 10.5173 1.07071 9.40092 1.61289 8.53271C2.15527 7.66419 2.95136 6.9927 3.98479 6.47839C6.08418 5.43357 9.07291 5.0797 12.5598 5.04192L13.3017 5.03389V4.29197V0.990422C13.3017 0.909456 13.3433 0.829852 13.4601 0.779824C13.5809 0.728042 13.7109 0.743768 13.8067 0.822036ZM4.16276 17.7047C4.16276 17.7048 4.16255 17.705 4.16208 17.7054C4.16252 17.7049 4.16276 17.7047 4.16276 17.7047Z" stroke="white" stroke-width="1.5"/>
</svg>
