<svg width="37" height="36" viewBox="0 0 37 36" fill="none" xmlns="http://www.w3.org/2000/svg">
<g filter="url(#filter0_d)">
<path d="M19.1489 24.7018C24.2237 24.7018 26.7618 24.7018 28.3377 23.1246C29.9149 21.5488 29.9149 19.0107 29.9149 13.9359C29.9149 8.86108 29.9149 6.323 28.3377 4.74713C26.7618 3.16992 24.2237 3.16992 19.1489 3.16992H13.766C8.69115 3.16992 6.15308 3.16992 4.57721 4.74713C3 6.323 3 8.86108 3 13.9359C3 19.0107 3 21.5488 4.57721 23.1246C5.45598 24.0047 6.63351 24.3937 8.38298 24.5646" stroke="white" stroke-width="2" stroke-linecap="round" stroke-linejoin="round"/>
<path d="M19.1492 24.7022C17.4858 24.7022 15.6529 25.3751 13.9802 26.2431C11.2914 27.6386 9.94698 28.3371 9.28487 27.8916C8.62277 27.4475 8.74792 26.0681 8.99958 23.3107L9.0561 22.6836" stroke="white" stroke-width="2" stroke-linecap="round"/>
</g>
<defs>
<filter id="filter0_d" x="0" y="0.169922" width="36.9149" height="34.8553" filterUnits="userSpaceOnUse" color-interpolation-filters="sRGB">
<feFlood flood-opacity="0" result="BackgroundImageFix"/>
<feColorMatrix in="SourceAlpha" type="matrix" values="0 0 0 0 0 0 0 0 0 0 0 0 0 0 0 0 0 0 127 0"/>
<feOffset dx="2" dy="2"/>
<feGaussianBlur stdDeviation="2"/>
<feColorMatrix type="matrix" values="0 0 0 0 0 0 0 0 0 0 0 0 0 0 0 0 0 0 0.4 0"/>
<feBlend mode="normal" in2="BackgroundImageFix" result="effect1_dropShadow"/>
<feBlend mode="normal" in="SourceGraphic" in2="effect1_dropShadow" result="shape"/>
</filter>
</defs>
</svg>
